<?xml version="1.0" encoding="UTF-8" standalone="no"?>
<svg
   xmlns:dc="http://purl.org/dc/elements/1.1/"
   xmlns:cc="http://creativecommons.org/ns#"
   xmlns:rdf="http://www.w3.org/1999/02/22-rdf-syntax-ns#"
   xmlns:svg="http://www.w3.org/2000/svg"
   xmlns="http://www.w3.org/2000/svg"
   viewBox="0 0 220 120"
   height="120"
   width="220"
   xml:space="preserve"
   version="1.1"
   id="svg2"><metadata
     id="metadata8"><rdf:RDF><cc:Work
         rdf:about=""><dc:format>image/svg+xml</dc:format><dc:type
           rdf:resource="http://purl.org/dc/dcmitype/StillImage" /><dc:title></dc:title></cc:Work></rdf:RDF></metadata><defs
     id="defs6"><clipPath
       id="clipPath60"
       clipPathUnits="userSpaceOnUse"><path
         id="path62"
         d="m 0,390.037 435.374,0 L 435.374,0 0,0 0,390.037 Z" /></clipPath><clipPath
       id="clipPath116"
       clipPathUnits="userSpaceOnUse"><path
         id="path118"
         d="m 0,390.037 435.374,0 L 435.374,0 0,0 0,390.037 Z" /></clipPath><clipPath
       id="clipPath130"
       clipPathUnits="userSpaceOnUse"><path
         id="path132"
         d="m 0,390.037 435.374,0 L 435.374,0 0,0 0,390.037 Z" /></clipPath><clipPath
       id="clipPath214"
       clipPathUnits="userSpaceOnUse"><path
         id="path216"
         d="m 0,390.037 435.374,0 L 435.374,0 0,0 0,390.037 Z" /></clipPath><clipPath
       id="clipPath228"
       clipPathUnits="userSpaceOnUse"><path
         id="path230"
         d="m 0,390.037 435.374,0 L 435.374,0 0,0 0,390.037 Z" /></clipPath><clipPath
       id="clipPath272"
       clipPathUnits="userSpaceOnUse"><path
         id="path274"
         d="m 0,390.037 435.374,0 L 435.374,0 0,0 0,390.037 Z" /></clipPath><clipPath
       id="clipPath286"
       clipPathUnits="userSpaceOnUse"><path
         id="path288"
         d="m 0,390.037 435.374,0 L 435.374,0 0,0 0,390.037 Z" /></clipPath></defs><g
     transform="matrix(1.25,0,0,-1.25,0,119.99999)"
     id="g10"><text
       y="-25.144524"
       x="26.136612"
       id="text24"
       style="font-variant:normal;font-weight:normal;font-stretch:normal;font-size:43.96087265px;font-family:'Bebas Neue Book';-inkscape-font-specification:BebasNeueBook;writing-mode:lr-tb;fill:#000000;fill-opacity:1;fill-rule:nonzero;stroke:none"
       transform="scale(0.9988565,-1.0011448)"><tspan
         id="tspan26"
         y="-25.144524"
         x="26.136612 43.545086 60.953636 78.801727">GURU</tspan></text>
<g
       transform="matrix(1.0007635,0,0,1.0030562,99.19006,69.008582)"
       id="g28"><path
         id="path30"
         style="fill:#962829;fill-opacity:1;fill-rule:nonzero;stroke:none"
         d="M 0,0 3.742,-53.433 56.139,-42.311 0,0 Z" /></g><g
       transform="matrix(1.0007635,0,0,1.0030562,115.86288,56.413502)"
       id="g32"><path
         id="path34"
         style="fill:#d04f3d;fill-opacity:1;fill-rule:nonzero;stroke:none"
         d="M 0,0 -12.918,-40.876 22.818,-17.197 0,0 Z" /></g><g
       transform="matrix(1.0007635,0,0,1.0030562,102.93511,15.412682)"
       id="g36"><path
         id="path38"
         style="fill:#d77764;fill-opacity:1;fill-rule:nonzero;stroke:none"
         d="M 0,0 12.918,40.876 -3.742,53.433 0,0 Z" /></g><g
       transform="matrix(1.0007635,0,0,1.0030562,116.94971,75.033232)"
       id="g40"><path
         id="path42"
         style="fill:#bd3e2c;fill-opacity:1;fill-rule:nonzero;stroke:none"
         d="M 0,0 -17.746,-6.006 38.393,-48.317 39.277,-29.603 0,0 Z" /></g><g
       transform="matrix(1.0007635,0,0,1.0030562,138.6987,39.163742)"
       id="g44"><path
         id="path46"
         style="fill:#d77764;fill-opacity:1;fill-rule:nonzero;stroke:none"
         d="M 0,0 -2.094,20.959 -22.818,17.197 0,0 Z" /></g><g
       transform="matrix(1.0007635,0,0,1.0030562,156.25699,45.340262)"
       id="g48"><path
         id="path50"
         style="fill:#962829;fill-opacity:1;fill-rule:nonzero;stroke:none"
         d="M 0,0 -17.545,-6.158 -0.885,-18.714 0,0 Z" /></g><g
       transform="matrix(1.0007635,0,0,1.0030562,116.94971,75.033232)"
       id="g52"><path
         id="path54"
         style="fill:#d77764;fill-opacity:1;fill-rule:nonzero;stroke:none"
         d="M 0,0 -1.086,-18.563 -17.746,-6.006 0,0 Z" /></g><g
       transform="matrix(1.0007635,0,0,1.0030562,-240.50639,-152.82904)"
       id="g56"><g
         clip-path="url(#clipPath60)"
         id="g58"><g
           transform="translate(351.8846,170.4815)"
           id="g64"><path
             id="path66"
             style="fill:#000000;fill-opacity:1;fill-rule:nonzero;stroke:none"
             d="m 0,0 38.771,8.229 c 1.109,0.236 1.427,1.668 0.521,2.351 l -11.549,8.704 c -0.447,0.338 -1.059,0.356 -1.527,0.047 L -0.644,1.533 C -1.422,1.017 -0.914,-0.194 0,0 m 2.435,38.359 -11.549,8.704 c -0.907,0.683 -2.196,-0.017 -2.116,-1.149 L -8.461,6.377 C -8.396,5.445 -7.092,5.291 -6.81,6.181 l 9.709,30.723 c 0.169,0.534 -0.017,1.117 -0.464,1.455 M 2.479,54.802 -8.212,51.184 c -1.007,-0.341 -1.221,-1.67 -0.372,-2.309 L 1.453,41.309 c 0.844,-0.636 2.056,-0.075 2.117,0.979 l 0.655,11.184 c 0.054,0.937 -0.857,1.631 -1.746,1.33 M 41.778,25.169 31.207,21.459 C 30.211,21.109 30.006,19.79 30.85,19.154 l 10.037,-7.565 c 0.849,-0.64 2.068,-0.068 2.118,0.994 l 0.533,11.275 c 0.044,0.937 -0.874,1.621 -1.76,1.311 M 4.113,34.885 -5.984,2.934 C -6.36,1.744 -5.032,0.743 -3.992,1.432 l 27.933,18.509 c 0.761,0.504 0.794,1.61 0.066,2.159 L 6.171,35.542 c -0.73,0.55 -1.782,0.213 -2.058,-0.657 m 2.7,4.61 13.008,2.36 c 1.135,0.207 1.481,1.665 0.56,2.359 L 8.055,53.504 C 7.211,54.14 6,53.579 5.937,52.525 L 5.256,40.874 C 5.206,40.018 5.97,39.342 6.813,39.495 M 25.649,25.853 24.295,39.421 c -0.077,0.769 -0.793,1.308 -1.553,1.17 L 9.326,38.156 C 8.19,37.95 7.845,36.492 8.766,35.798 L 23.537,24.665 c 0.921,-0.694 2.228,0.041 2.112,1.188 m 0.665,11.108 1.315,-13.154 c 0.085,-0.853 0.945,-1.401 1.754,-1.118 l 11.013,3.866 c 0.997,0.349 1.202,1.669 0.358,2.304 l -12.326,9.29 C 27.507,38.844 26.2,38.109 26.314,36.961 M 44.181,7.647 C 44.149,7.626 44.121,7.604 44.088,7.587 44.079,7.583 44.073,7.576 44.064,7.572 44.028,7.555 43.99,7.549 43.953,7.537 43.926,7.528 43.901,7.514 43.873,7.507 L -8.523,-3.614 c -0.012,-0.003 -0.024,-0.002 -0.035,-0.004 -0.043,-0.007 -0.086,-0.012 -0.13,-0.013 -0.011,0 -0.024,-0.001 -0.037,-0.001 -0.01,0 -0.021,0.003 -0.032,0.003 -0.017,10e-4 -0.035,0 -0.054,0.002 -0.011,10e-4 -0.022,0.006 -0.034,0.008 -0.04,0.007 -0.078,0.016 -0.117,0.028 -0.017,0.006 -0.035,0.009 -0.053,0.016 -0.013,0.005 -0.026,0.01 -0.039,0.015 -0.064,0.027 -0.126,0.06 -0.182,0.103 0,0 -10e-4,0 -10e-4,10e-4 l -10e-4,0 c -0.005,0.004 -0.009,0.009 -0.014,0.013 -0.044,0.035 -0.086,0.073 -0.123,0.115 -0.012,0.015 -0.021,0.032 -0.032,0.047 -0.013,0.017 -0.025,0.034 -0.036,0.052 -0.013,0.019 -0.028,0.036 -0.038,0.056 -0.012,0.021 -0.019,0.045 -0.029,0.068 -0.01,0.021 -0.019,0.042 -0.027,0.064 -0.003,0.01 -0.009,0.018 -0.012,0.028 -0.001,0.004 -0.004,0.009 -0.005,0.013 -0.017,0.061 -0.029,0.124 -0.034,0.187 L -13.33,50.62 c -0.002,0.029 0.006,0.057 0.007,0.085 0.001,0.04 -0.004,0.078 0.002,0.117 0.002,0.01 0.007,0.017 0.008,0.027 0.007,0.036 0.021,0.07 0.033,0.105 0.013,0.043 0.026,0.086 0.047,0.125 0.016,0.033 0.038,0.061 0.057,0.091 0.026,0.038 0.05,0.075 0.081,0.107 0.025,0.027 0.052,0.049 0.079,0.073 0.036,0.029 0.072,0.058 0.111,0.082 0.012,0.007 0.022,0.019 0.035,0.026 0.02,0.011 0.043,0.014 0.064,0.024 0.026,0.011 0.047,0.027 0.074,0.036 l 17.746,6.006 c 0.274,0.093 0.582,0.06 0.806,-0.127 0.003,-10e-4 0.006,-0.002 0.008,-0.004 l 39.274,-29.6 0.003,-0.002 c 0.234,-0.176 0.365,-0.455 0.351,-0.747 L 44.571,8.33 C 44.57,8.302 44.561,8.276 44.557,8.249 44.553,8.226 44.557,8.203 44.551,8.18 44.548,8.166 44.54,8.154 44.536,8.14 44.523,8.095 44.506,8.053 44.487,8.011 44.473,7.978 44.459,7.945 44.44,7.915 44.434,7.903 44.431,7.891 44.423,7.88 44.405,7.854 44.38,7.833 44.359,7.808 44.336,7.78 44.314,7.751 44.288,7.727 44.255,7.696 44.218,7.672 44.181,7.647" /></g><g
           transform="translate(401.9236,186.6876)"
           id="g68"><path
             id="path70"
             style="fill:#000000;fill-opacity:1;fill-rule:nonzero;stroke:none"
             d="m 0,0 c -0.319,0.241 -0.772,0.177 -1.014,-0.142 l -3.461,-4.593 c -0.24,-0.319 -0.176,-0.772 0.143,-1.013 0.318,-0.24 0.772,-0.177 1.013,0.142 l 3.462,4.593 C 0.383,-0.694 0.319,-0.24 0,0" /></g><g
           transform="translate(394.1238,176.3389)"
           id="g72"><path
             id="path74"
             style="fill:#000000;fill-opacity:1;fill-rule:nonzero;stroke:none"
             d="m 0,0 c -0.319,0.241 -0.772,0.177 -1.013,-0.142 l -3.462,-4.593 c -0.241,-0.319 -0.176,-0.773 0.143,-1.014 0.318,-0.24 0.772,-0.176 1.013,0.143 l 3.462,4.593 C 0.383,-0.694 0.319,-0.241 0,0" /></g><g
           transform="translate(398.991,178.563)"
           id="g76"><path
             id="path78"
             style="fill:#000000;fill-opacity:1;fill-rule:nonzero;stroke:none"
             d="m 0,0 c 0.147,-0.112 0.338,-0.167 0.536,-0.139 l 5.695,0.8 C 6.627,0.717 6.903,1.082 6.848,1.478 6.792,1.874 6.426,2.15 6.03,2.094 L 0.334,1.294 C -0.062,1.238 -0.337,0.873 -0.281,0.477 -0.254,0.279 -0.148,0.111 0,0" /></g><g
           transform="translate(403.7635,173.586)"
           id="g80"><path
             id="path82"
             style="fill:#000000;fill-opacity:1;fill-rule:nonzero;stroke:none"
             d="M 0,0 -4.593,3.461 C -4.912,3.702 -5.365,3.639 -5.605,3.319 -5.847,3 -5.782,2.547 -5.464,2.307 l 4.594,-3.462 c 0.318,-0.241 0.772,-0.177 1.013,0.142 C 0.383,-0.694 0.319,-0.24 0,0" /></g><g
           transform="translate(397.075,175.171)"
           id="g84"><path
             id="path86"
             style="fill:#000000;fill-opacity:1;fill-rule:nonzero;stroke:none"
             d="M 0,0 C -0.056,0.396 -0.421,0.671 -0.817,0.616 -1.213,0.56 -1.488,0.194 -1.433,-0.201 l 0.8,-5.696 c 0.029,-0.198 0.134,-0.365 0.281,-0.477 0.148,-0.111 0.338,-0.167 0.537,-0.139 0.395,0.056 0.67,0.422 0.616,0.818 L 0,0 Z" /></g><g
           transform="translate(366.1668,237.4439)"
           id="g88"><path
             id="path90"
             style="fill:#000000;fill-opacity:1;fill-rule:nonzero;stroke:none"
             d="m 0,0 c -0.342,0.348 -0.901,0.353 -1.249,0.011 l -5.005,-4.92 c -0.348,-0.341 -0.352,-0.9 -0.011,-1.248 0.342,-0.347 0.901,-0.352 1.248,-0.01 l 5.006,4.918 C 0.337,-0.907 0.342,-0.348 0,0" /></g><g
           transform="translate(369.6931,228.7173)"
           id="g92"><path
             id="path94"
             style="fill:#000000;fill-opacity:1;fill-rule:nonzero;stroke:none"
             d="m 0,0 c 0.005,0.487 -0.388,0.886 -0.875,0.89 l -7.018,0.061 c -0.488,0.004 -0.885,-0.388 -0.89,-0.875 -0.002,-0.243 0.095,-0.466 0.253,-0.626 0.158,-0.161 0.379,-0.262 0.622,-0.264 l 7.017,-0.061 C -0.402,-0.879 -0.004,-0.488 0,0" /></g><g
           transform="translate(353.0056,229.7442)"
           id="g96"><path
             id="path98"
             style="fill:#000000;fill-opacity:1;fill-rule:nonzero;stroke:none"
             d="m 0,0 -7.018,0.061 c -0.487,0.004 -0.885,-0.388 -0.89,-0.875 -0.002,-0.244 0.095,-0.465 0.254,-0.626 0.158,-0.162 0.378,-0.263 0.621,-0.265 l 7.017,-0.06 C 0.473,-1.77 0.871,-1.378 0.875,-0.89 0.88,-0.403 0.487,-0.004 0,0" /></g><g
           transform="translate(354.9314,231.3301)"
           id="g100"><path
             id="path102"
             style="fill:#000000;fill-opacity:1;fill-rule:nonzero;stroke:none"
             d="m 0,0 c 0.348,0.342 0.353,0.901 0.012,1.249 l -4.92,5.005 C -5.25,6.602 -5.809,6.606 -6.156,6.265 -6.504,5.923 -6.509,5.364 -6.167,5.016 L -1.248,0.011 C -0.906,-0.337 -0.348,-0.342 0,0" /></g><g
           transform="translate(358.3767,240.231)"
           id="g104"><path
             id="path106"
             style="fill:#000000;fill-opacity:1;fill-rule:nonzero;stroke:none"
             d="M 0,0 C 0.005,0.487 -0.387,0.886 -0.875,0.89 -1.362,0.895 -1.761,0.503 -1.765,0.015 l -0.061,-7.017 c -0.002,-0.244 0.095,-0.466 0.254,-0.627 0.158,-0.161 0.378,-0.262 0.622,-0.264 0.487,-0.004 0.886,0.388 0.889,0.875 L 0,0 Z" /></g></g></g><text
       y="-24.082405"
       x="96.8666"
       id="text108"
       style="font-variant:normal;font-weight:bold;font-stretch:normal;font-size:49.22670746px;font-family:'Bebas Neue Bold';-inkscape-font-specification:BebasNeueBold;writing-mode:lr-tb;fill:#ffffff;fill-opacity:1;fill-rule:nonzero;stroke:none"
       transform="scale(0.9988565,-1.0011448)"><tspan
         id="tspan110"
         y="-24.082405"
         x="96.8666 116.26188">SP</tspan></text>
</g></svg>